<?xml version="1.0" standalone="no"?>
<svg xmlns:xlink="http://www.w3.org/1999/xlink" id="wave" style="transform:rotate(180deg); transition: 0.3s" viewBox="0 0 1440 190" version="1.1" xmlns="http://www.w3.org/2000/svg"><defs><linearGradient id="sw-gradient-0" x1="0" x2="0" y1="1" y2="0"><stop stop-color="rgba(255, 255, 255, 1)" offset="0%"/><stop stop-color="rgba(37, 53, 149, 1)" offset="100%"/></linearGradient></defs><path style="transform:translate(0, 0px); opacity:1" fill="url(#sw-gradient-0)" d="M0,133L48,129.8C96,127,192,120,288,98.2C384,76,480,38,576,34.8C672,32,768,63,864,63.3C960,63,1056,32,1152,22.2C1248,13,1344,25,1440,41.2C1536,57,1632,76,1728,79.2C1824,82,1920,70,2016,57C2112,44,2208,32,2304,44.3C2400,57,2496,95,2592,101.3C2688,108,2784,82,2880,66.5C2976,51,3072,44,3168,50.7C3264,57,3360,76,3456,82.3C3552,89,3648,82,3744,72.8C3840,63,3936,51,4032,60.2C4128,70,4224,101,4320,110.8C4416,120,4512,108,4608,85.5C4704,63,4800,32,4896,28.5C4992,25,5088,51,5184,66.5C5280,82,5376,89,5472,88.7C5568,89,5664,82,5760,76C5856,70,5952,63,6048,60.2C6144,57,6240,57,6336,76C6432,95,6528,133,6624,145.7C6720,158,6816,146,6864,139.3L6912,133L6912,190L6864,190C6816,190,6720,190,6624,190C6528,190,6432,190,6336,190C6240,190,6144,190,6048,190C5952,190,5856,190,5760,190C5664,190,5568,190,5472,190C5376,190,5280,190,5184,190C5088,190,4992,190,4896,190C4800,190,4704,190,4608,190C4512,190,4416,190,4320,190C4224,190,4128,190,4032,190C3936,190,3840,190,3744,190C3648,190,3552,190,3456,190C3360,190,3264,190,3168,190C3072,190,2976,190,2880,190C2784,190,2688,190,2592,190C2496,190,2400,190,2304,190C2208,190,2112,190,2016,190C1920,190,1824,190,1728,190C1632,190,1536,190,1440,190C1344,190,1248,190,1152,190C1056,190,960,190,864,190C768,190,672,190,576,190C480,190,384,190,288,190C192,190,96,190,48,190L0,190Z"/></svg>